<?xml version="1.0" encoding="UTF-8" standalone="no"?>
<svg
   width="24"
   height="24"
   id="svg4428"
   version="1.1"
   inkscape:version="1.3.2 (091e20ef0f, 2023-11-25)"
   sodipodi:docname="maximize.svg"
   xmlns:inkscape="http://www.inkscape.org/namespaces/inkscape"
   xmlns:sodipodi="http://sodipodi.sourceforge.net/DTD/sodipodi-0.dtd"
   xmlns:xlink="http://www.w3.org/1999/xlink"
   xmlns="http://www.w3.org/2000/svg"
   xmlns:svg="http://www.w3.org/2000/svg">
  <defs
     id="defs3">
    <style
       id="current-color-scheme"
       type="text/css">.ColorScheme-Text {
        color:#e0e0e0;
        stop-color:#e0e0e0;
      }
      .ColorScheme-Background {
        color:#2c2c2c;
        stop-color:#2c2c2c;
      }
      .ColorScheme-HeaderBackground {
        color:#242424;
        stop-color:#242424;
      }
      .ColorScheme-Highlight {
        color:#e0e0e0;
        stop-color:#e0e0e0;
      }</style>
  </defs>
  <sodipodi:namedview
     id="base"
     pagecolor="#42474c"
     bordercolor="#666666"
     borderopacity="1.0"
     inkscape:pageopacity="1"
     inkscape:pageshadow="2"
     inkscape:zoom="18.514422"
     inkscape:cx="37.781357"
     inkscape:cy="19.471307"
     inkscape:document-units="px"
     inkscape:current-layer="layer1"
     showgrid="true"
     inkscape:snap-bbox="true"
     inkscape:window-width="1920"
     inkscape:window-height="965"
     inkscape:window-x="0"
     inkscape:window-y="0"
     inkscape:window-maximized="1"
     showborder="true"
     inkscape:showpageshadow="false"
     inkscape:pagecheckerboard="0"
     inkscape:deskcolor="#474c52">
    <inkscape:grid
       type="xygrid"
       id="grid4436"
       empspacing="5"
       visible="true"
       enabled="true"
       snapvisiblegridlinesonly="true"
       originx="0"
       originy="0"
       spacingx="1"
       spacingy="1"
       units="px" />
  </sodipodi:namedview>
  <g
     inkscape:label="Layer 1"
     inkscape:groupmode="layer"
     id="layer1"
     transform="translate(0,-1098.5197)">
    <use
       x="0"
       y="0"
       xlink:href="#inactive-center"
       id="deactivated-center"
       transform="translate(30)"
       width="100%"
       height="100%" />
    <use
       height="100%"
       width="100%"
       transform="translate(58.923121)"
       id="deactivated-inactive-center"
       xlink:href="#inactive-center"
       y="0"
       x="0" />
    <g
       id="active-center">
      <circle
         style="opacity:0.06;fill:#ffffff;fill-opacity:1;stroke-width:11;stroke-linecap:round;stroke-linejoin:round;paint-order:stroke fill markers"
         id="circle1168"
         cx="-24"
         cy="1109.5197"
         r="11" />
      <path
         d="m -25.999999,1105.5198 c -1.108,0 -2,0.892 -2,2 v 4 c 0,1.108 0.89201,2 2,2 h 4 c 1.108,0 2,-0.892 2,-2 v -4 c 0,-1.108 -0.89201,-2 -2,-2 z m 0,1 h 4 c 0.554,0 1,0.4461 1,1 v 4 c 0,0.554 -0.44602,1 -1,1 h -4 c -0.55397,0 -0.99999,-0.446 -0.99999,-1 v -4 c 0,-0.5539 0.44602,-1 0.99999,-1 z"
         style="opacity:0.65;fill:#ffffff;paint-order:stroke fill markers"
         id="path1596" />
    </g>
    <g
       id="hover-center">
      <circle
         style="fill:#6a58f0;fill-opacity:1;stroke-width:11;stroke-linecap:round;stroke-linejoin:round;paint-order:stroke fill markers"
         id="circle1172"
         cx="12"
         cy="1110.5197"
         r="11" />
      <path
         d="m 10,1106.5197 c -1.108,0 -2,0.892 -2,2 v 4 c 0,1.108 0.89201,2 2,2 h 4 c 1.108,0 2,-0.892 2,-2 v -4 c 0,-1.108 -0.89201,-2 -2,-2 z m 0,1 h 4 c 0.554,0 1,0.446 1,1 v 4 c 0,0.554 -0.44602,1 -1,1 h -4 c -0.55397,0 -0.99999,-0.446 -0.99999,-1 v -4 c 0,-0.554 0.44602,-1 0.99999,-1 z"
         style="fill:#fafafa;paint-order:stroke fill markers"
         id="path2878-6" />
    </g>
    <g
       id="hover-inactive-center"
       transform="translate(0,30.000047)">
      <circle
         style="opacity:0.15;fill:#ffffff;fill-opacity:1;stroke-width:11;stroke-linecap:round;stroke-linejoin:round;paint-order:stroke fill markers"
         id="circle8018"
         cx="-24"
         cy="1109.5197"
         r="11" />
      <path
         d="m -25.999999,1105.5198 c -1.108,0 -2,0.892 -2,2 v 4 c 0,1.108 0.89201,2 2,2 h 4 c 1.108,0 2,-0.892 2,-2 v -4 c 0,-1.108 -0.89201,-2 -2,-2 z m 0,1 h 4 c 0.554,0 1,0.4461 1,1 v 4 c 0,0.554 -0.44602,1 -1,1 h -4 c -0.55397,0 -0.99999,-0.446 -0.99999,-1 v -4 c 0,-0.5539 0.44602,-1 0.99999,-1 z"
         style="opacity:1;fill:#ffffff;paint-order:stroke fill markers"
         id="path8020" />
    </g>
    <g
       id="use1853-7"
       transform="translate(16,505.15761)" />
    <g
       id="pressed-center">
      <circle
         style="fill:#6a58f0;fill-opacity:1;stroke-width:11;stroke-linecap:round;stroke-linejoin:round;paint-order:stroke fill markers"
         id="circle1176"
         cx="51"
         cy="1110.5197"
         r="11" />
      <circle
         style="opacity:0.15;fill:#000000;fill-opacity:1;stroke-width:11;stroke-linecap:round;stroke-linejoin:round;paint-order:stroke fill markers"
         id="circle1178"
         cx="51"
         cy="1110.5197"
         r="11" />
      <path
         d="m 49,1106.5197 c -1.108,0 -2,0.892 -2,2 v 4 c 0,1.108 0.89201,2 2,2 h 4 c 1.10801,0 2,-0.892 2,-2 v -4 c 0,-1.108 -0.89201,-2 -2,-2 z m 0,1 h 4 c 0.554,0 1,0.446 1,1 v 4 c 0,0.554 -0.44602,1 -1,1 h -4 c -0.55397,0 -0.99999,-0.446 -0.99999,-1 v -4 c 0,-0.554 0.44603,-1 0.99999,-1 z"
         style="fill:#fafafa;paint-order:stroke fill markers"
         id="path2930-5" />
    </g>
    <g
       id="inactive-center"
       style="opacity:0.5"
       transform="translate(0,1.0000467)">
      <circle
         style="opacity:0.06;fill:#ffffff;fill-opacity:1;stroke-width:11;stroke-linecap:round;stroke-linejoin:round;paint-order:stroke fill markers"
         id="circle8143"
         cx="86"
         cy="1109.5197"
         r="11" />
      <path
         d="m 84.000001,1105.5198 c -1.108,0 -2,0.892 -2,2 v 4 c 0,1.108 0.89201,2 2,2 h 4 c 1.108,0 2,-0.892 2,-2 v -4 c 0,-1.108 -0.89201,-2 -2,-2 z m 0,1 h 4 c 0.554,0 1,0.4461 1,1 v 4 c 0,0.554 -0.44602,1 -1,1 h -4 c -0.55397,0 -0.99999,-0.446 -0.99999,-1 v -4 c 0,-0.5539 0.44602,-1 0.99999,-1 z"
         style="opacity:0.65;fill:#ffffff;paint-order:stroke fill markers"
         id="path8145" />
    </g>
    <path
       style="fill:#42484f;fill-opacity:1;stroke-width:0.0540119"
       d="M 10.937419,22.92178 C 9.021064,22.741601 7.0448128,21.97582 5.4717409,20.803875 1.8388412,18.09735 0.24784273,13.534855 1.4099377,9.1558698 2.4230993,5.3380924 5.5263335,2.2886954 9.3440668,1.3593879 10.268855,1.1342772 10.994684,1.0503902 12.017658,1.0503902 c 1.044687,0 1.753518,0.085148 2.694408,0.3236656 4.327186,1.0969489 7.58087,4.7660191 8.159814,9.2015492 0.277229,2.123959 -0.08132,4.313263 -1.019015,6.222111 -2.031908,4.136318 -6.341374,6.554126 -10.915446,6.124064 z m 3.729697,-7.011709 c 0.562054,-0.197546 0.994327,-0.615513 1.223933,-1.183428 0.122295,-0.30249 0.123493,-0.329036 0.123493,-2.735991 V 9.5601146 L 15.884239,9.2360429 C 15.70596,8.7926524 15.215517,8.3022558 14.772268,8.1241757 14.449978,7.9946923 14.435491,7.993887 12.137504,7.9776769 10.167785,7.9637829 9.7775122,7.9740079 9.4927153,8.0469694 8.889021,8.2016283 8.4115117,8.6048188 8.1433337,9.1863336 8.0213791,9.4507793 8.0207741,9.4647522 8.0207741,12.017658 v 2.565568 l 0.1504255,0.285501 c 0.2813012,0.5339 0.707873,0.900427 1.2423288,1.067457 0.1728836,0.05403 0.7960486,0.072 2.5919756,0.07475 2.204481,0.0034 2.384473,-0.0035 2.661612,-0.100858 z"
       id="path4"
       transform="translate(0,1098.5197)" />
    <path
       style="fill:#42484f;fill-opacity:1;stroke-width:0.0540119"
       d="m 9.7018833,14.910145 c -0.2756155,-0.0998 -0.5618342,-0.383046 -0.628103,-0.621589 -0.030848,-0.111043 -0.052811,-1.087398 -0.052298,-2.32491 8.126e-4,-1.959052 0.00904,-2.1511344 0.1005975,-2.3495194 0.115358,-0.2499471 0.2928464,-0.4275924 0.5090656,-0.5095157 0.098804,-0.037436 0.9366906,-0.05761 2.3927116,-0.05761 1.823745,0 2.2678,0.014178 2.386512,0.076196 0.195831,0.1023068 0.423116,0.3486875 0.493492,0.5349546 0.03718,0.098408 0.05745,0.9328195 0.05745,2.3651745 0,2.113752 -0.0049,2.222727 -0.10909,2.426961 -0.06,0.11761 -0.210093,0.280703 -0.333539,0.362429 l -0.224448,0.148593 -2.19152,0.01231 c -1.769082,0.0099 -2.2318665,-0.0023 -2.400829,-0.06348 z"
       id="path5"
       transform="translate(0,1098.5197)" />
    <path
       style="fill:#42484f;fill-opacity:1;stroke-width:0.0540119"
       d="m 50.204105,22.947008 c -0.08912,-0.01039 -0.39043,-0.04541 -0.669579,-0.07783 -1.518856,-0.176379 -3.298165,-0.850689 -4.63432,-1.756283 -2.57866,-1.747715 -4.20834,-4.30257 -4.750821,-7.447874 -0.128636,-0.745835 -0.128289,-2.590117 6.3e-4,-3.348741 0.403541,-2.3746354 1.417872,-4.3640227 3.086549,-6.0535871 1.660933,-1.6817237 3.857815,-2.7824186 6.236932,-3.1248651 1.264745,-0.18204544 2.92375,-0.097773 4.160367,0.2113347 4.024117,1.0058767 7.180755,4.2319205 8.066897,8.2442658 0.217854,0.9864187 0.267575,1.5627917 0.236046,2.7363197 -0.02848,1.059871 -0.08802,1.524091 -0.303731,2.367784 -0.920297,3.599535 -3.573151,6.469275 -7.106674,7.687686 -1.303605,0.449502 -3.186362,0.694212 -4.322296,0.561788 z m 3.657558,-7.11112 c 0.595852,-0.2926 0.993563,-0.814284 1.12106,-1.47051 0.04317,-0.222203 0.05725,-1.018283 0.04533,-2.563768 C 55.011137,9.6081285 55.008105,9.5535181 54.886537,9.2521585 54.649621,8.664859 54.0918,8.1842958 53.479792,8.0402454 53.004147,7.9282916 48.91108,7.9366532 48.474102,8.0504715 47.882018,8.2046897 47.405614,8.6102908 47.139959,9.1863336 47.018063,9.4506535 47.0174,9.4658195 47.0174,11.990652 v 2.538562 l 0.142331,0.303547 c 0.251294,0.535936 0.695822,0.928581 1.250423,1.104479 0.178353,0.05657 0.759386,0.06982 2.685148,0.06124 l 2.457543,-0.01095 z"
       id="path6"
       transform="translate(0,1098.5197)" />
    <path
       style="fill:#42484f;fill-opacity:1;stroke-width:0.0540119"
       d="m 48.700152,14.91071 c -0.268079,-0.09711 -0.456849,-0.273566 -0.581446,-0.543532 -0.09168,-0.198642 -0.09971,-0.390102 -0.09971,-2.376526 0,-2.4340714 0.0028,-2.4532033 0.406074,-2.7608792 l 0.204157,-0.1557657 2.272769,-0.015591 c 1.250023,-0.00858 2.32701,-0.00215 2.393305,0.014283 0.177293,0.043942 0.505818,0.3516779 0.589665,0.5523518 0.05727,0.1370652 0.07297,0.6520241 0.07297,2.3930241 0,2.11902 -0.0049,2.227954 -0.109091,2.432212 -0.06,0.11761 -0.210092,0.280703 -0.333538,0.362429 l -0.224448,0.148593 -2.19152,0.01231 c -1.761457,0.0099 -2.232272,-0.0024 -2.399186,-0.06291 z"
       id="path7"
       transform="translate(0,1098.5197)" />
  </g>
</svg>
