<?xml version="1.0" encoding="UTF-8" standalone="no"?>
<svg
   width="24"
   height="24"
   id="svg4428"
   version="1.1"
   inkscape:version="1.3.2 (091e20ef0f, 2023-11-25)"
   sodipodi:docname="minimize.svg"
   xmlns:inkscape="http://www.inkscape.org/namespaces/inkscape"
   xmlns:sodipodi="http://sodipodi.sourceforge.net/DTD/sodipodi-0.dtd"
   xmlns:xlink="http://www.w3.org/1999/xlink"
   xmlns="http://www.w3.org/2000/svg"
   xmlns:svg="http://www.w3.org/2000/svg">
  <defs
     id="defs4430" />
  <sodipodi:namedview
     id="base"
     pagecolor="#474d52"
     bordercolor="#666666"
     borderopacity="1.0"
     inkscape:pageopacity="1"
     inkscape:pageshadow="2"
     inkscape:zoom="4.0703126"
     inkscape:cx="55.646832"
     inkscape:cy="13.880998"
     inkscape:document-units="px"
     inkscape:current-layer="layer1"
     showgrid="true"
     inkscape:snap-bbox="true"
     inkscape:window-width="1920"
     inkscape:window-height="965"
     inkscape:window-x="0"
     inkscape:window-y="0"
     inkscape:window-maximized="1"
     showborder="true"
     inkscape:showpageshadow="false"
     inkscape:pagecheckerboard="0"
     inkscape:deskcolor="#474d52">
    <inkscape:grid
       type="xygrid"
       id="grid4436"
       empspacing="5"
       visible="true"
       enabled="true"
       snapvisiblegridlinesonly="true"
       originx="0"
       originy="0"
       spacingx="1"
       spacingy="1"
       units="px" />
  </sodipodi:namedview>
  <defs
     id="defs3">
    <style
       id="current-color-scheme"
       type="text/css">.ColorScheme-Text {
        color:#e0e0e0;
        stop-color:#e0e0e0;
      }
      .ColorScheme-Background {
        color:#2c2c2c;
        stop-color:#2c2c2c;
      }
      .ColorScheme-HeaderBackground {
        color:#242424;
        stop-color:#242424;
      }
      .ColorScheme-Highlight {
        color:#e0e0e0;
        stop-color:#e0e0e0;
      }</style>
  </defs>
  <g
     inkscape:label="Layer 1"
     inkscape:groupmode="layer"
     id="layer1"
     transform="translate(0,-1098.5197)">
    <use
       x="0"
       y="0"
       xlink:href="#inactive-center"
       id="deactivated-center"
       transform="translate(35,4.6679688e-5)"
       width="100%"
       height="100%" />
    <use
       height="100%"
       width="100%"
       transform="translate(63.923121,4.6679688e-5)"
       id="deactivated-inactive-center"
       xlink:href="#inactive-center"
       y="0"
       x="0" />
    <g
       id="active-center">
      <circle
         style="opacity:0.06;fill:#ffffff;fill-opacity:1;stroke-width:11;stroke-linecap:round;stroke-linejoin:round;paint-order:stroke fill markers"
         id="circle1182"
         cx="-19"
         cy="1110.5197"
         r="11" />
      <rect
         x="-23"
         y="1110.5197"
         width="8"
         height="1"
         rx="0.5"
         ry="0.5"
         style="opacity:0.65;fill:#ffffff;paint-order:stroke fill markers"
         id="rect1598" />
    </g>
    <g
       id="hover-center">
      <circle
         style="fill:#42484f;fill-opacity:1;stroke-width:11;stroke-linecap:round;stroke-linejoin:round;paint-order:stroke fill markers"
         id="circle1186"
         cx="12"
         cy="1110.5197"
         r="11" />
      <rect
         x="8"
         y="1110.5197"
         width="8"
         height="1"
         rx="0.5"
         ry="0.5"
         style="fill:#fafafa;paint-order:stroke fill markers"
         id="rect2887-3" />
    </g>
    <g
       id="use1861-5"
       transform="translate(15,506.15761)" />
    <g
       id="pressed-center">
      <circle
         style="fill:#6a58f0;fill-opacity:1;stroke-width:11;stroke-linecap:round;stroke-linejoin:round;paint-order:stroke fill markers"
         id="circle1190"
         cx="52"
         cy="1110.5197"
         r="11" />
      <circle
         style="opacity:0.15;fill:#000000;fill-opacity:1;stroke-width:11;stroke-linecap:round;stroke-linejoin:round;paint-order:stroke fill markers"
         id="circle1192"
         cx="52"
         cy="1110.5197"
         r="11" />
      <rect
         x="48"
         y="1110.5197"
         width="8"
         height="1"
         rx="0.5"
         ry="0.5"
         style="fill:#fafafa;paint-order:stroke fill markers"
         id="rect2932-6" />
    </g>
    <g
       id="hover-inactive-center"
       transform="translate(0,31.000047)">
      <circle
         style="opacity:0.15;fill:#ffffff;fill-opacity:1;stroke-width:11;stroke-linecap:round;stroke-linejoin:round;paint-order:stroke fill markers"
         id="circle8597"
         cx="-19"
         cy="1110.5197"
         r="11" />
      <rect
         x="-23"
         y="1110.5197"
         width="8"
         height="1"
         rx="0.5"
         ry="0.5"
         style="opacity:1;fill:#ffffff;paint-order:stroke fill markers"
         id="rect8599" />
    </g>
    <g
       id="inactive-center"
       style="opacity:0.5">
      <circle
         style="opacity:0.06;fill:#ffffff;fill-opacity:1;stroke-width:11;stroke-linecap:round;stroke-linejoin:round;paint-order:stroke fill markers"
         id="circle8605"
         cx="86"
         cy="1110.5197"
         r="11" />
      <rect
         x="82"
         y="1110.5197"
         width="8"
         height="1"
         rx="0.5"
         ry="0.5"
         style="opacity:0.65;fill:#ffffff;paint-order:stroke fill markers"
         id="rect8607" />
    </g>
    <path
       style="fill:#42484f;fill-opacity:1;stroke-width:0.245681"
       d="m 49.689342,22.598643 c -5.496696,-1.194067 -9.310498,-6.691804 -8.435003,-12.159368 1.023155,-6.3897143 7.24171,-10.56143906 13.365643,-8.9663572 2.022471,0.5267869 3.269313,1.230339 4.846504,2.7347246 5.459786,5.2077529 4.146775,14.1125996 -2.569005,17.4230086 -1.575535,0.776628 -3.893914,1.367058 -5.181551,1.319603 -0.27025,-0.01 -1.182214,-0.168185 -2.026588,-0.351611 z m 6.281679,-10.130313 0.07851,-0.552783 h -3.93349 c -3.940773,0 -4.41079,0.100339 -4.112406,0.877915 0.116304,0.303083 0.77908,0.351847 4.014093,0.295337 3.807824,-0.06652 3.876145,-0.07724 3.953296,-0.620469 z"
       id="path1"
       transform="translate(0,1098.5197)" />
    <path
       style="fill:#42484f;fill-opacity:1;stroke-width:0.245681"
       d="M 49.567236,22.459218 C 47.958237,22.079907 45.771073,20.811015 44.45117,19.491112 39.169165,14.209107 40.792977,5.4769769 47.657936,2.2465676 c 2.98476,-1.40452326 7.103944,-1.1503938 9.868754,0.608844 1.683334,1.0710989 3.329891,2.9566125 4.21673,4.828684 0.732,1.5452147 0.78249,1.8261747 0.78249,4.3542914 0,2.528118 -0.05049,2.809078 -0.78249,4.354292 -1.396545,2.948036 -3.821193,4.952756 -7.185326,5.940893 -1.436879,0.422051 -3.511941,0.474291 -4.990858,0.125646 z m 6.097516,-9.503288 c 0.144981,-0.09927 0.334985,-0.373973 0.422232,-0.610441 0.147009,-0.398446 -0.136705,-0.429942 -3.872903,-0.429942 -4.032515,0 -4.509468,0.09868 -4.212853,0.871649 0.111232,0.289868 0.817787,0.356052 3.768411,0.352995 1.997331,-0.0021 3.750132,-0.08499 3.895113,-0.184261 z"
       id="path2"
       transform="translate(0,1098.5197)" />
    <path
       style="fill:#31363b;fill-opacity:1;stroke-width:0.245681"
       d="M 49.567236,22.459218 C 46.571033,21.752883 43.740327,19.407973 42.350189,16.480736 39.779792,11.068212 42.069155,4.931617 47.662187,2.242024 c 1.494888,-0.718866 1.769614,-0.7674891 4.299424,-0.7609459 3.459211,0.00895 4.805808,0.5020894 7.092398,2.5973345 1.216321,1.1145367 1.850152,1.9506089 2.545728,3.3580118 0.9022,1.8254777 0.926173,1.9442662 0.926173,4.5892216 0,2.542439 -0.0498,2.820357 -0.78249,4.367033 -1.396545,2.948036 -3.821193,4.952756 -7.185326,5.940893 -1.436879,0.422051 -3.511941,0.474291 -4.990858,0.125646 z m 6.059502,-9.46439 c 0.213739,-0.08202 0.388616,-0.358411 0.388616,-0.614204 0,-0.436866 -0.23757,-0.465077 -3.916403,-0.465077 -3.916506,0 -4.393288,0.101419 -4.097723,0.871649 0.110943,0.289113 0.810014,0.356758 3.686897,0.356758 1.952499,0 3.724874,-0.06711 3.938613,-0.149126 z"
       id="path3"
       transform="translate(0,1098.5197)" />
  </g>
</svg>
